<?xml version="1.0" encoding="utf-8" ?>
<svg xmlns="http://www.w3.org/2000/svg" xmlns:xlink="http://www.w3.org/1999/xlink" width="68" height="55">
	<defs>
		<clipPath id="clip_0">
			<rect x="-2281.4897" y="-230.66003" width="3064.3201" height="3822.4199" clip-rule="evenodd"/>
		</clipPath>
	</defs>
	<g clip-path="url(#clip_0)">
		<path fill="rgb(41,41,41)" stroke="none" transform="matrix(3.99 0 0 3.99 0.790039 0.76001)" d="M16.9337 3.87275C16.8664 3.77793 16.7574 3.72155 16.6408 3.72155L3.53443 3.72155L2.56579 0.262361C2.52251 0.107207 2.38101 0 2.21993 0L0.359153 0C0.160901 0 0 0.160901 0 0.359153C0 0.557406 0.160901 0.718307 0.359153 0.718307L1.94769 0.718307L4.21071 8.80051C3.38035 8.81362 2.70855 9.49224 2.70855 10.3257C2.70855 11.1673 3.39328 11.8521 4.23496 11.8521L4.69521 11.8521C4.63577 11.9925 4.60291 12.1467 4.60291 12.3085C4.60291 12.9563 5.12997 13.4833 5.77752 13.4833C6.42525 13.4833 6.95231 12.9563 6.95231 12.3085C6.95231 12.1467 6.91927 11.9925 6.86001 11.8521L10.6631 11.8521C10.5887 12.0061 10.5458 12.1782 10.5458 12.3606C10.5458 13.0084 11.0729 13.5354 11.7204 13.5354C12.368 13.5354 12.895 13.0084 12.895 12.3606C12.895 12.1783 12.8521 12.0063 12.7778 11.8521L13.4086 11.8521C13.6069 11.8521 13.7678 11.6912 13.7678 11.4929C13.7678 11.2947 13.6069 11.1338 13.4086 11.1338L4.23478 11.1338C3.78925 11.1338 3.42668 10.7712 3.42668 10.3257C3.42668 9.88013 3.78925 9.51756 4.23478 9.51756L14.8731 9.51756C15.053 9.51756 15.2006 9.38467 15.2268 9.2121L16.9799 4.19922C17.0183 4.08932 17.0011 3.96775 16.9337 3.87275ZM9.59406 5.23753L7.24807 5.23753L7.13476 4.43967L9.59406 4.43967L9.59406 5.23753ZM10.3125 5.23753L10.3125 4.43967L12.7718 4.43967L12.6585 5.23753L10.3125 5.23753ZM15.8557 5.23753L13.3842 5.23753L13.4975 4.43967L16.1348 4.43967L15.8557 5.23753ZM6.5224 5.23771L6.40909 4.43985L3.73555 4.43985L3.95895 5.23771L6.5224 5.23771ZM9.59424 7.00331L9.59424 5.95584L7.35025 5.95584L7.49912 7.00331L9.59424 7.00331ZM12.4077 7.00331L12.5565 5.95584L10.3125 5.95584L10.3125 7.00331L12.4077 7.00331ZM6.77345 7.00349L4.45332 7.00349L4.15989 5.95602L6.62458 5.95602L6.77345 7.00349ZM13.1333 7.00349L15.2382 7.00349L15.6047 5.95602L13.2822 5.95602L13.1333 7.00349ZM4.65445 7.7218L4.95614 8.79926L7.02863 8.79926L6.87563 7.7218L4.65445 7.7218ZM7.7543 8.79926L7.60112 7.7218L9.59424 7.7218L9.59424 8.79926L7.7543 8.79926ZM10.3125 7.7218L10.3125 8.79926L12.1525 8.79926L12.3057 7.7218L10.3125 7.7218ZM14.6104 8.79926L12.8782 8.79926L13.0312 7.7218L14.9873 7.7218L14.6104 8.79926ZM5.77734 12.7647C6.02893 12.7647 6.23382 12.5598 6.23382 12.3082C6.23382 12.0566 6.02893 11.8517 5.77734 11.8517C5.52575 11.8517 5.32104 12.0564 5.32104 12.3082C5.32104 12.5599 5.52575 12.7647 5.77734 12.7647ZM11.7202 12.8167C11.4687 12.8167 11.2639 12.612 11.2639 12.3603C11.2639 12.1085 11.4687 11.9038 11.7202 11.9038C11.9718 11.9038 12.1766 12.1085 12.1766 12.3603C12.1766 12.612 11.9718 12.8167 11.7202 12.8167Z" fill-rule="evenodd"/>
	</g>

</svg>